<mxfile host="65bd71144e">
    <diagram id="pwe7xcSQOgHzPmdPm7Qo" name="Page-1">
        <mxGraphModel dx="2191" dy="761" grid="1" gridSize="10" guides="1" tooltips="1" connect="1" arrows="1" fold="1" page="1" pageScale="1" pageWidth="850" pageHeight="1100" math="0" shadow="0">
            <root>
                <mxCell id="0"/>
                <mxCell id="1" parent="0"/>
                <mxCell id="2" value="Page&amp;lt;url:string, document:Document&amp;gt;" style="swimlane;childLayout=stackLayout;resizeParent=1;resizeParentMax=0;horizontal=1;startSize=20;horizontalStack=0;html=1;" vertex="1" parent="1">
                    <mxGeometry x="280" y="150" width="280" height="240" as="geometry"/>
                </mxCell>
                <mxCell id="3" value="fields" style="swimlane;startSize=20;horizontal=0;html=1;" vertex="1" parent="2">
                    <mxGeometry y="20" width="280" height="100" as="geometry"/>
                </mxCell>
                <mxCell id="6" value="&lt;div style=&quot;font-size: 14px; line-height: 19px;&quot;&gt;&lt;div style=&quot;font-size: 14px;&quot;&gt;&amp;nbsp; #&lt;span style=&quot;font-size: 14px;&quot;&gt;url&lt;/span&gt;: &lt;span style=&quot;font-size: 14px;&quot;&gt;string&lt;/span&gt;&lt;/div&gt;&lt;div style=&quot;font-size: 14px;&quot;&gt;&amp;nbsp; #&lt;span style=&quot;font-size: 14px;&quot;&gt;baseUrl&lt;/span&gt;: &lt;span style=&quot;font-size: 14px;&quot;&gt;string&lt;/span&gt;&lt;/div&gt;&lt;div style=&quot;font-size: 14px;&quot;&gt;&amp;nbsp; #&lt;span style=&quot;font-size: 14px;&quot;&gt;document&lt;/span&gt;: &lt;span style=&quot;font-size: 14px;&quot;&gt;Document&lt;/span&gt;&lt;/div&gt;&lt;div style=&quot;font-size: 14px;&quot;&gt;&amp;nbsp; #&lt;span style=&quot;font-size: 14px;&quot;&gt;config&lt;/span&gt;: &lt;span style=&quot;font-size: 14px;&quot;&gt;IParseConfig&lt;/span&gt;&lt;/div&gt;&lt;/div&gt;" style="text;html=1;align=left;verticalAlign=middle;resizable=0;points=[];autosize=1;strokeColor=none;fillColor=none;labelBackgroundColor=none;fontColor=default;fontFamily=Courier New;fontSize=14;" vertex="1" parent="3">
                    <mxGeometry x="20" width="220" height="90" as="geometry"/>
                </mxCell>
                <mxCell id="4" value="methods" style="swimlane;startSize=20;horizontal=0;html=1;" vertex="1" parent="2">
                    <mxGeometry y="120" width="280" height="120" as="geometry"/>
                </mxCell>
                <mxCell id="7" value="MainPage&amp;lt;url:string, document:Document&amp;gt;" style="swimlane;childLayout=stackLayout;resizeParent=1;resizeParentMax=0;horizontal=1;startSize=20;horizontalStack=0;html=1;" vertex="1" parent="1">
                    <mxGeometry x="30" y="440" width="280" height="240" as="geometry"/>
                </mxCell>
                <mxCell id="8" value="fields" style="swimlane;startSize=20;horizontal=0;html=1;" vertex="1" parent="7">
                    <mxGeometry y="20" width="280" height="100" as="geometry"/>
                </mxCell>
                <mxCell id="10" value="methods" style="swimlane;startSize=20;horizontal=0;html=1;" vertex="1" parent="7">
                    <mxGeometry y="120" width="280" height="120" as="geometry"/>
                </mxCell>
                <mxCell id="11" value="NewsPage&amp;lt;url:string, document:Document&amp;gt;" style="swimlane;childLayout=stackLayout;resizeParent=1;resizeParentMax=0;horizontal=1;startSize=20;horizontalStack=0;html=1;" vertex="1" parent="1">
                    <mxGeometry x="520" y="440" width="300" height="260" as="geometry"/>
                </mxCell>
                <mxCell id="12" value="fields" style="swimlane;startSize=20;horizontal=0;html=1;" vertex="1" parent="11">
                    <mxGeometry y="20" width="300" height="80" as="geometry"/>
                </mxCell>
                <mxCell id="13" value="&lt;div style=&quot;font-size: 14px; line-height: 19px;&quot;&gt;&lt;div style=&quot;line-height: 19px; font-size: 14px;&quot;&gt;&lt;div style=&quot;font-size: 14px;&quot;&gt;&lt;span style=&quot;font-size: 14px;&quot;&gt;#id&lt;/span&gt;: &lt;span style=&quot;font-size: 14px;&quot;&gt;string&lt;/span&gt;&lt;/div&gt;&lt;div style=&quot;font-size: 14px;&quot;&gt;&lt;span style=&quot;font-size: 14px;&quot;&gt;#number&lt;/span&gt;: &lt;span style=&quot;font-size: 14px;&quot;&gt;number&lt;/span&gt; = &lt;span style=&quot;font-size: 14px;&quot;&gt;0&lt;/span&gt;&lt;/div&gt;&lt;/div&gt;&lt;/div&gt;" style="text;html=1;align=left;verticalAlign=middle;resizable=0;points=[];autosize=1;strokeColor=none;fillColor=none;labelBackgroundColor=none;fontColor=default;fontFamily=Courier New;fontSize=14;" vertex="1" parent="12">
                    <mxGeometry x="30" y="10" width="180" height="50" as="geometry"/>
                </mxCell>
                <mxCell id="14" value="methods" style="swimlane;startSize=20;horizontal=0;html=1;" vertex="1" parent="11">
                    <mxGeometry y="100" width="300" height="160" as="geometry"/>
                </mxCell>
                <mxCell id="15" value="+get title(): string&lt;br style=&quot;font-size: 14px;&quot;&gt;+get summary(): string&lt;br style=&quot;font-size: 14px;&quot;&gt;+get text(): string&lt;br style=&quot;font-size: 14px;&quot;&gt;&lt;div style=&quot;font-size: 14px;&quot;&gt;&lt;span style=&quot;background-color: initial; font-size: 14px;&quot;&gt;+get image(): string&lt;/span&gt;&lt;/div&gt;&lt;div style=&quot;font-size: 14px;&quot;&gt;+get date(): string&lt;span style=&quot;background-color: initial; font-size: 14px;&quot;&gt;&lt;br&gt;&lt;/span&gt;&lt;/div&gt;&lt;div style=&quot;font-size: 14px;&quot;&gt;&lt;span style=&quot;background-color: initial; font-size: 14px;&quot;&gt;&lt;br&gt;&lt;/span&gt;&lt;/div&gt;&lt;div style=&quot;font-size: 14px;&quot;&gt;&lt;span style=&quot;background-color: initial; font-size: 14px;&quot;&gt;+getNews(url: string): INews&lt;/span&gt;&lt;/div&gt;" style="text;html=1;align=left;verticalAlign=middle;resizable=0;points=[];autosize=1;strokeColor=none;fillColor=none;fontColor=default;fontFamily=Courier New;fontSize=14;" vertex="1" parent="14">
                    <mxGeometry x="30" y="1" width="260" height="130" as="geometry"/>
                </mxCell>
            </root>
        </mxGraphModel>
    </diagram>
</mxfile>